<?xml version="1.0" encoding="UTF-8"?>
<svg version="1.1" xmlns="http://www.w3.org/2000/svg" width="1000" height="1000">
<path d="M0 0 C330 0 660 0 1000 0 C1000 330 1000 660 1000 1000 C670 1000 340 1000 0 1000 C0 670 0 340 0 0 Z " fill="#FE6909" transform="translate(0,0)"/>
<path d="M0 0 C8.58 0 17.16 0 26 0 C27.588125 3.856875 29.17625 7.71375 30.8125 11.6875 C36.58436793 25.66326246 42.45979175 39.59451945 48.34976196 53.52084351 C54.26242623 67.50176852 60.14643658 81.4942312 66 95.5 C72.11847535 110.13660912 78.2637013 124.76163759 84.4375 139.375 C84.83081512 140.30600525 85.22413025 141.2370105 85.62936401 142.19622803 C88.41861022 148.79789369 91.20915495 155.39901012 94 162 C103.25351498 183.88668937 112.50380074 205.77474762 121.69503784 227.68768311 C122.46874906 229.53174321 123.24308037 231.37554329 124.01809692 233.21905518 C125.09472449 235.78064849 126.16878224 238.34330503 127.2421875 240.90625 C127.54973465 241.63673553 127.8572818 242.36722107 128.17414856 243.11984253 C130.92458123 249.70095584 133.43554848 256.33242606 136 263 C126.76 263 117.52 263 108 263 C105.6186476 257.19188669 103.23799057 251.38349651 100.85888672 245.57446289 C100.05456952 243.61109501 99.24989921 241.64787173 98.44482422 239.68481445 C92.21311469 224.48866958 86.10015681 209.25039202 80 194 C33.8 193.67 -12.4 193.34 -60 193 C-60.33 194.65 -60.66 196.3 -61 198 C-61.94199942 200.41735625 -62.91788833 202.78568613 -63.95703125 205.16015625 C-64.25638077 205.85488037 -64.55573029 206.54960449 -64.864151 207.26538086 C-65.8424448 209.53305731 -66.82743592 211.79775739 -67.8125 214.0625 C-68.48958091 215.62861491 -69.16617167 217.19494181 -69.84228516 218.76147461 C-71.21947568 221.95124576 -72.59894139 225.14001836 -73.97998047 228.328125 C-75.8738913 232.70367703 -77.75450804 237.08480839 -79.62890625 241.46875 C-79.90767105 242.12064804 -80.18643585 242.77254608 -80.47364807 243.44419861 C-81.27425878 245.31689737 -82.07465341 247.18968835 -82.875 249.0625 C-83.85087242 251.3453472 -84.82736913 253.62792771 -85.8046875 255.91015625 C-86.40772705 257.31986694 -86.40772705 257.31986694 -87.02294922 258.75805664 C-87.64619762 260.1881641 -88.30234021 261.60468042 -89 263 C-97.58 263 -106.16 263 -115 263 C-110.20801095 251.26553134 -105.27092951 239.61065232 -100.1875 228 C-99.447149 226.30538949 -98.70691764 224.6107267 -97.96679688 222.91601562 C-91.90810255 209.04953528 -85.8213465 195.19534486 -79.7331543 181.34179688 C-74.63427443 169.73703766 -69.55964199 158.12191547 -64.5 146.5 C-58.31525163 132.29373344 -52.09900115 118.10159832 -45.86474609 103.91699219 C-40.38781155 91.45419581 -34.93435202 78.98141927 -29.5 66.5 C-23.78998618 53.38885621 -18.07016874 40.28204413 -12.32885742 27.18457031 C-11.53387962 25.37051834 -10.73943545 23.55623241 -9.94555664 21.74169922 C-8.84283365 19.22165908 -7.7380953 16.70251202 -6.6328125 14.18359375 C-6.14646835 13.07068214 -6.14646835 13.07068214 -5.65029907 11.93528748 C-5.34433807 11.23919876 -5.03837708 10.54311005 -4.72314453 9.82592773 C-4.46131378 9.2285228 -4.19948303 8.63111786 -3.92971802 8.01560974 C-2.68335266 5.313515 -1.3307699 2.66153979 0 0 Z " fill="#FFFDFD" transform="translate(637,368)"/>
<path d="M0 0 C0.70576172 0.0012085 1.41152344 0.00241699 2.13867188 0.00366211 C26.88346844 0.1184287 46.91138719 5.75486092 65.625 22.375 C68.44966968 25.25949627 71.10423853 28.22214427 73.625 31.375 C72.22076609 34.74261978 70.70342297 36.33608274 67.7109375 38.390625 C66.95039062 38.91914063 66.18984375 39.44765625 65.40625 39.9921875 C64.6121875 40.53101563 63.818125 41.06984375 63 41.625 C62.19820312 42.17929687 61.39640625 42.73359375 60.5703125 43.3046875 C58.59381391 44.66941272 56.61207578 46.02574318 54.625 47.375 C50.84113091 45.65872752 49.17763184 43.66114674 46.625 40.375 C33.87507552 28.56454364 19.63613343 23.19741674 2.5 23.1875 C0.86417969 23.16913086 0.86417969 23.16913086 -0.8046875 23.15039062 C-17.48547328 23.12046099 -31.5525206 27.65757386 -43.56640625 39.54296875 C-52.60538216 49.21450651 -55.77357932 59.13101231 -55.6875 72.25 C-55.68258545 73.13333008 -55.6776709 74.01666016 -55.67260742 74.92675781 C-55.49272717 84.91518561 -53.20310206 92.25097895 -47.375 100.375 C-46.385 101.86 -46.385 101.86 -45.375 103.375 C-41.14447768 108.27279713 -34.93741979 111.21990104 -29.375 114.375 C-28.570625 114.84035156 -27.76625 115.30570312 -26.9375 115.78515625 C-15.65278168 121.87812048 -2.78314608 125.01721094 9.5 128.4375 C17.15798988 130.57909458 24.37012723 133.09829588 31.625 136.375 C32.9084467 136.89615714 34.19373893 137.41278363 35.48046875 137.92578125 C51.80703254 144.53779735 66.16966993 155.04508437 73.59765625 171.56640625 C77.73266763 182.87086702 79.39800473 193.30140232 78.625 205.375 C78.59164551 206.05175781 78.55829102 206.72851562 78.52392578 207.42578125 C77.49745245 226.42214601 69.55923792 242.34625519 55.75 255.53515625 C49.03523384 261.34886004 41.69605555 265.72112679 33.625 269.375 C32.51898437 269.88289063 31.41296875 270.39078125 30.2734375 270.9140625 C20.69599938 274.74913943 9.87975573 275.96625241 -0.375 276.375 C-1.0551416 276.40754883 -1.7352832 276.44009766 -2.43603516 276.47363281 C-27.75095831 277.56636331 -52.76260213 270.90544964 -72.375 254.375 C-73.5196875 253.43140625 -73.5196875 253.43140625 -74.6875 252.46875 C-80.00891783 247.93835374 -84.29517598 243.04215105 -88.375 237.375 C-84.29456854 232.91991815 -79.77228944 229.79278608 -74.6875 226.5625 C-73.91599609 226.06041016 -73.14449219 225.55832031 -72.34960938 225.04101562 C-66.63860544 221.375 -66.63860544 221.375 -64.375 221.375 C-63.25003075 222.85022353 -62.19995715 224.38290333 -61.1875 225.9375 C-55.72509876 233.92274222 -49.66372797 239.40466137 -41.375 244.375 C-40.76140625 244.74496094 -40.1478125 245.11492187 -39.515625 245.49609375 C-37.50893995 246.59805541 -35.49137821 247.50100081 -33.375 248.375 C-32.49585938 248.74882813 -31.61671875 249.12265625 -30.7109375 249.5078125 C-12.20502797 256.07442556 9.91064457 254.15418373 27.55859375 246.0234375 C37.06612998 240.84277088 44.0839012 233.13657459 48.625 223.375 C48.93179688 222.73304688 49.23859375 222.09109375 49.5546875 221.4296875 C52.50332007 214.94269585 52.8070489 209.06716973 52.8125 202.0625 C52.82474609 201.24587891 52.83699219 200.42925781 52.84960938 199.58789062 C52.87272511 189.91780623 50.55912599 183.05036014 44.625 175.375 C43.95597656 174.47974609 43.95597656 174.47974609 43.2734375 173.56640625 C32.35978 160.9310755 12.41011095 156.21765789 -2.8125 151.3125 C-61.04219671 132.41399963 -61.04219671 132.41399963 -74.375 106.375 C-81.83697439 89.89896054 -85.07305398 68.8799217 -79.53125 51.25390625 C-70.5173372 28.81048148 -56.75020083 15.14445388 -34.375 5.375 C-23.13914924 0.87333992 -12.03104525 -0.03800166 0 0 Z " fill="#FFFDFB" transform="translate(883.375,361.625)"/>
<path d="M0 0 C1.99848426 2.52604153 3.51893437 4.85715434 4.72314453 7.8425293 C5.18207092 8.96738235 5.18207092 8.96738235 5.65026855 10.11495972 C5.97450806 10.9265152 6.29874756 11.73807068 6.6328125 12.57421875 C6.98170532 13.43330841 7.33059814 14.29239807 7.69006348 15.17752075 C8.4446249 17.03720701 9.1965407 18.89796844 9.94610596 20.75967407 C11.55044796 24.74411537 13.16750238 28.72335471 14.7840271 32.7028656 C15.62028204 34.76166433 16.45590737 36.82071889 17.29092407 38.88002014 C21.34821299 48.88009619 25.47972554 58.84864926 29.625 68.8125 C36.01542882 84.18484219 42.3543421 99.57765758 48.64892578 114.98950195 C49.26966949 116.50740082 49.89059543 118.02522518 50.51171875 119.54296875 C50.80620911 120.26323746 51.10069946 120.98350616 51.40411377 121.7256012 C53.83302579 127.64402982 56.367705 133.51302737 58.94458008 139.3684082 C60 142 60 142 60 144 C20.07 144 -19.86 144 -61 144 C-57.87206734 135.86737508 -54.71948013 127.81523077 -51.2890625 119.81640625 C-50.84792618 118.78245728 -50.40678986 117.7485083 -49.95228577 116.68322754 C-48.51200198 113.30873111 -47.06852129 109.93561262 -45.625 106.5625 C-44.6088971 104.1836122 -43.59303222 101.80462273 -42.57739258 99.42553711 C-40.99632038 95.72221787 -39.41511936 92.01895488 -37.83277893 88.31617737 C-34.12138752 79.63085139 -30.41929152 70.94161748 -26.72265625 62.25 C-25.7003581 59.84692382 -24.67805992 57.44384765 -23.65576172 55.04077148 C-22.19416638 51.60489622 -20.73274913 48.16894598 -19.27203369 44.73269653 C-12.9193176 29.79040632 -6.49822894 14.8796127 0 0 Z " fill="#FF690A" transform="translate(648,395)"/>
<path d="M0 0 C3.31265103 2.11196896 6.22616092 4.45232184 8 8 C8.23828125 10.171875 8.23828125 10.171875 8.3125 12.75 C8.36857422 14.01070313 8.36857422 14.01070313 8.42578125 15.296875 C7.34770648 22.1411662 1.18117229 27.09381002 -3.52246094 31.74951172 C-4.27406998 32.50141281 -5.02567902 33.2533139 -5.80006409 34.02799988 C-8.27345431 36.50000221 -10.75384232 38.96485411 -13.234375 41.4296875 C-14.95545345 43.14703391 -16.67608945 44.86482384 -18.39630127 46.58303833 C-22.91610294 51.09521865 -27.44187944 55.60135939 -31.96893311 60.10626221 C-36.59099037 64.70782884 -41.20736258 69.31509104 -45.82421875 73.921875 C-54.87726198 82.95349474 -63.93643672 91.97893818 -73 101 C-68.7625125 106.06126525 -64.33380042 110.80064167 -59.64941406 115.44824219 C-58.93973984 116.15645615 -58.23006561 116.8646701 -57.49888611 117.59434509 C-55.96952413 119.11992344 -54.43900875 120.64434623 -52.90744781 122.16771698 C-50.48446829 124.57786673 -48.06468463 126.99118472 -45.64569092 129.40533447 C-40.51659773 134.52303925 -35.38357814 139.63679463 -30.25 144.75 C-24.285995 150.69040717 -18.32360891 156.63242047 -12.36540985 162.57865143 C-9.97987072 164.95770203 -7.59134394 167.33372535 -5.20269775 169.70965576 C-3.74598732 171.16273501 -2.28941634 172.61595409 -0.83300781 174.06933594 C-0.16702072 174.73015671 0.49896637 175.39097748 1.18513489 176.07182312 C1.7934465 176.68006424 2.40175812 177.28830536 3.02850342 177.91497803 C3.55719402 178.44144802 4.08588463 178.96791801 4.63059616 179.51034164 C8.11560831 183.30139095 8.3693411 185.81555184 8.2578125 190.71484375 C7.79886725 194.78276753 6.06946148 197.70773404 3.5 200.8125 C0.71951584 203.01371663 -2.26143589 203.26001159 -5.6875 203.4375 C-6.49574219 203.49808594 -7.30398437 203.55867187 -8.13671875 203.62109375 C-15.77448247 201.96433464 -21.92676218 194.36199897 -27.25195312 189.00683594 C-28.03340698 188.22888672 -28.81486084 187.4509375 -29.61999512 186.64941406 C-32.17877092 184.09937879 -34.73023533 181.54217259 -37.28125 178.984375 C-39.06314363 177.2038294 -40.845334 175.42358072 -42.62780762 173.64361572 C-46.34953027 169.92483321 -50.06773404 166.202568 -53.78320312 162.47753906 C-58.08076266 158.16904999 -62.38554452 153.86787767 -66.69405413 149.57034087 C-70.84622721 145.42831943 -74.99278163 141.28071534 -79.13694763 137.1306839 C-80.89941937 135.36687478 -82.66338684 133.604559 -84.42884827 131.84374237 C-86.8851583 129.39248234 -89.33501509 126.93495409 -91.78320312 124.47558594 C-92.51869385 123.74414368 -93.25418457 123.01270142 -94.01196289 122.25909424 C-94.67353394 121.59188354 -95.33510498 120.92467285 -96.01672363 120.23724365 C-96.88605907 119.36677713 -96.88605907 119.36677713 -97.77295685 118.47872543 C-99 117 -99 117 -99 115 C-99.598125 114.773125 -100.19625 114.54625 -100.8125 114.3125 C-103.83535493 112.49878704 -104.65344741 111.29905386 -106 108 C-106.7513595 101.43068111 -106.38436667 95.80066431 -103 90 C-100.38996487 86.81963596 -97.49352619 83.95706232 -94.56884766 81.06713867 C-93.70837326 80.20126129 -92.84789886 79.33538391 -91.96134949 78.44326782 C-89.61115056 76.08273858 -87.25238787 73.7314808 -84.88878679 71.38441634 C-82.41176811 68.92129961 -79.94496907 66.44798344 -77.47665405 63.97615051 C-73.33255903 59.82935819 -69.18047192 55.69070314 -65.0234375 51.55688477 C-60.22149612 46.78157641 -55.43213555 41.99392949 -50.64936602 37.19942492 C-46.0404706 32.57974282 -41.42312489 27.96859839 -36.80176926 23.36138344 C-34.83824724 21.40361083 -32.877664 19.4429636 -30.91939163 17.47994041 C-28.18492858 14.73980986 -25.43813506 12.01225131 -22.68994141 9.28588867 C-21.88041519 8.47186081 -21.07088898 7.65783295 -20.23683167 6.81913757 C-19.10973534 5.70689819 -19.10973534 5.70689819 -17.95986938 4.57218933 C-17.3120582 3.92680804 -16.66424702 3.28142675 -15.99680519 2.61648846 C-11.02483129 -1.4085103 -5.97571707 -1.78455715 0 0 Z " fill="#560D54" transform="translate(144,398)"/>
<path d="M0 0 C4.71531939 2.84850876 8.28081507 6.55569384 12.14398193 10.45542908 C13.00971329 11.31750977 13.87544464 12.17959045 14.76741028 13.0677948 C17.1301967 15.42388136 19.48609368 17.78646055 21.83883572 20.15255237 C24.30613289 22.63120052 26.78117403 25.10209499 29.25512695 27.57409668 C33.40608499 31.72417314 37.55103506 35.8801757 41.69232178 40.03990173 C46.47800198 44.84676836 51.27247263 49.64472481 56.07187247 54.43789047 C60.69407479 59.05439643 65.31058277 63.67655464 69.92432404 68.30151558 C71.885849 70.26768078 73.84924014 72.23195403 75.81414032 74.19474602 C78.55627936 76.93465008 81.29001048 79.68284837 84.02288818 82.43199158 C84.83848709 83.24511307 85.654086 84.05823456 86.49440002 84.89599609 C87.2373381 85.64601898 87.98027618 86.39604187 88.74572754 87.16879272 C89.39240765 87.8175257 90.03908775 88.46625868 90.70536423 89.13465023 C93.77781132 92.68994275 94.63304343 95.59622788 94.699646 100.25840759 C94.72800537 101.15043884 94.75636475 102.04247009 94.7855835 102.96153259 C93.49141441 111.51620958 87.97331118 116.93457334 82.07122803 122.76353455 C80.8265979 124.01626915 80.8265979 124.01626915 79.55682373 125.29431152 C76.82516967 128.0384219 74.07933219 130.76782002 71.3324585 133.49668884 C69.42279335 135.4045975 67.51568396 137.31505454 65.60830688 139.22525024 C61.61561743 143.22063473 57.61495076 147.20789113 53.60931396 151.19029236 C48.98630214 155.78667157 44.37587601 160.39538482 39.77203476 165.01095992 C35.33026737 169.46352454 30.88003662 173.90753528 26.42580795 178.34763145 C24.5356703 180.23202888 22.64893472 182.11965245 20.76361465 184.00889015 C18.12863924 186.64677718 15.48416077 189.27475049 12.83685303 191.9002533 C12.06054535 192.68106262 11.28423767 193.46187195 10.48440552 194.26634216 C5.41125385 199.27029019 0.80337184 203.41252649 -6.675354 203.50840759 C-10.18451294 203.39742516 -12.38560971 202.9884295 -15.175354 200.82090759 C-19.03660057 196.4770052 -20.5313169 192.36254057 -20.25444031 186.54170227 C-19.53353835 183.38801502 -18.38263598 182.1078592 -16.17169189 179.7530365 C-14.93904099 178.43918976 -14.93904099 178.43918976 -13.68148804 177.09880066 C-7.21420532 170.41591949 -0.63353509 163.84623603 5.95355225 157.28184509 C7.55516641 155.68209941 9.15655741 154.08213028 10.75773621 152.48194885 C14.94263719 148.30083919 19.13053404 144.12274317 23.3190918 139.94529724 C27.60468067 135.66999582 31.88738818 131.39181012 36.17034912 127.11387634 C44.55231935 118.74258362 52.93746181 110.37447623 61.324646 102.00840759 C57.0920616 96.9496939 52.66590446 92.22449539 47.97406006 87.59190369 C47.26438583 86.88690231 46.55471161 86.18190094 45.8235321 85.45553589 C44.29411513 83.93656046 42.76360148 82.4186886 41.23209381 80.90182114 C38.80838778 78.5002531 36.3887693 76.09463741 33.97033691 73.6877594 C27.09803605 66.84895574 20.22155771 60.01439641 13.3348999 53.19004822 C9.1135275 49.00629511 4.89947843 44.81528517 0.69005585 40.61951065 C-0.91317196 39.02433744 -2.51917261 37.43194605 -4.12798309 35.84240341 C-6.37301975 33.62380787 -8.60863901 31.39611598 -10.84234619 29.16612244 C-11.84132683 28.18567711 -11.84132683 28.18567711 -12.86048889 27.1854248 C-17.25412976 22.77243558 -19.89757043 19.04557842 -20.175354 12.63340759 C-20.08307867 8.02733029 -18.46443782 5.71492894 -15.378479 2.41856384 C-10.6557078 -1.49180406 -5.81701051 -2.15601503 0 0 Z " fill="#560C54" transform="translate(339.67535400390625,397.99159240722656)"/>
<path d="M0 0 C3 2.4375 3 2.4375 5 5 C5.495 5.495 5.495 5.495 6 6 C7.151606 14.36186485 4.52853313 21.4206752 1.63671875 29.1484375 C1.17177171 30.425973 0.70825127 31.70402847 0.24604797 32.9825592 C-0.99686299 36.40842035 -2.2591765 39.82682479 -3.52532959 43.24415207 C-4.85210033 46.83568277 -6.16045804 50.43390939 -7.47070312 54.03149414 C-9.60699098 59.89031213 -11.75354355 65.74526226 -13.90869141 71.59716797 C-16.69922321 79.17466023 -19.46915803 86.75945855 -22.23046875 94.34765625 C-27.88477024 109.87601251 -33.57191746 125.39225812 -39.27069092 140.90434265 C-40.65025042 144.6604667 -42.02831865 148.41713705 -43.40625 152.17385864 C-44.33411354 154.70113514 -45.2645839 157.22743965 -46.1953125 159.75366211 C-49.23111433 168.01571339 -52.14691345 176.29596881 -54.84619141 184.67456055 C-56.07267842 188.20946948 -57.50815974 191.56968202 -59 195 C-60.22462036 198.58300215 -61.37425604 202.18516436 -62.5234375 205.79296875 C-63.60449488 209.01765118 -64.88443999 212.11760997 -66.2265625 215.2421875 C-68.49270472 220.60376386 -70.46555231 226.03191585 -72.375 231.52734375 C-72.6696817 232.37090927 -72.9643634 233.21447479 -73.26797485 234.08360291 C-74.49251582 237.59265963 -75.71472804 241.10228878 -76.91601562 244.61938477 C-77.80595291 247.21844945 -78.71392513 249.81062566 -79.625 252.40234375 C-79.88974121 253.19197006 -80.15448242 253.98159637 -80.42724609 254.79515076 C-82.33245661 260.15235512 -84.68027944 264.34013972 -90 267 C-97.10679612 267.69902913 -97.10679612 267.69902913 -100.875 264.75 C-104.37062827 260.22624576 -105.45906186 257.78919167 -105 252 C-103.93337104 248.28564159 -102.55513246 244.69941104 -101.1796875 241.08984375 C-100.77313431 239.99836029 -100.36658112 238.90687683 -99.94770813 237.78231812 C-99.06301338 235.40984624 -98.17396494 233.03899437 -97.28109741 230.66958618 C-95.1201486 224.93396138 -92.9853028 219.18866935 -90.84899712 213.44383049 C-90.09846637 211.42649092 -89.34677639 209.40958588 -88.59498596 207.39271545 C-83.255716 193.05631064 -78.06556691 178.66672658 -72.89115143 164.27016068 C-71.74878699 161.09193657 -70.60552699 157.91403474 -69.46240234 154.73608398 C-68.17458815 151.15574415 -66.88679306 147.5753976 -65.59936523 143.99491882 C-62.92817638 136.56917993 -60.24638904 129.14737915 -57.55078125 121.73046875 C-57.23344528 120.85683182 -56.91610931 119.98319489 -56.5891571 119.08308411 C-54.75516344 114.04415813 -52.88862546 109.01870098 -51 104 C-50.35088742 102.23036607 -49.70466884 100.4596655 -49.0625 98.6875 C-48.72347656 97.75292969 -48.38445312 96.81835938 -48.03515625 95.85546875 C-47.69355469 94.91316406 -47.35195312 93.97085938 -47 93 C-46.33354155 91.16659096 -45.66687664 89.33325697 -45 87.5 C-44.67 86.5925 -44.34 85.685 -44 84.75 C-40.33333333 74.66666667 -36.66666667 64.58333333 -33 54.5 C-32.66871094 53.58863281 -32.33742188 52.67726563 -31.99609375 51.73828125 C-31.34328773 49.9437047 -30.68967122 48.14942272 -30.03515625 46.35546875 C-28.14892206 41.1815814 -26.28480118 36.00042965 -24.4375 30.8125 C-20.80598789 20.64647369 -20.80598789 20.64647369 -19 16 C-18.63132812 15.00742187 -18.26265625 14.01484375 -17.8828125 12.9921875 C-17.46773438 11.92226563 -17.05265625 10.85234375 -16.625 9.75 C-16.05652344 8.25726563 -16.05652344 8.25726563 -15.4765625 6.734375 C-11.97762235 0.25485621 -6.95587591 -1.51214694 0 0 Z " fill="#570D54" transform="translate(285,366)"/>
</svg>
